<?xml version="1.0" encoding="UTF-8" standalone="no"?>
<!-- Created with Inkscape (http://www.inkscape.org/) -->

<svg
   version="1.1"
   id="svg2"
   xml:space="preserve"
   width="432.53171"
   height="75.679733"
   viewBox="0 0 432.5317 75.679733"
   sodipodi:docname="7a40a4390201a490149f726b32ad03d8.eps"
   xmlns:inkscape="http://www.inkscape.org/namespaces/inkscape"
   xmlns:sodipodi="http://sodipodi.sourceforge.net/DTD/sodipodi-0.dtd"
   xmlns="http://www.w3.org/2000/svg"
   xmlns:svg="http://www.w3.org/2000/svg"><defs
     id="defs6" /><sodipodi:namedview
     id="namedview4"
     pagecolor="#ffffff"
     bordercolor="#666666"
     borderopacity="1.0"
     inkscape:pageshadow="2"
     inkscape:pageopacity="0.0"
     inkscape:pagecheckerboard="0" /><g
     id="g8"
     inkscape:groupmode="layer"
     inkscape:label="ink_ext_XXXXXX"
     transform="matrix(1.3333333,0,0,-1.3333333,-18.510933,94.169331)"><g
       id="g10"
       transform="scale(0.1)"><path
         d="m 212.422,415.27 h 91.98 v 36.8 h -91.98 v -36.8"
         style="fill:#ffffff;fill-opacity:1;fill-rule:evenodd;stroke:none"
         id="path12" /><path
         d="m 377.988,415.27 h 91.977 v 36.8 H 341.188 V 286.496 h 36.8 V 415.27"
         style="fill:#ffffff;fill-opacity:1;fill-rule:evenodd;stroke:none"
         id="path14" /><path
         d="M 304.391,668.719 V 706.27 C 210.195,688.961 138.832,606.441 138.832,507.258 V 415.27 h 36.789 v 91.988 c 0,78.801 55.043,144.726 128.77,161.461"
         style="fill:#ffffff;fill-opacity:1;fill-rule:evenodd;stroke:none"
         id="path16" /><path
         d="M 506.762,452.07 V 341.699 c 0,-91.441 -74.129,-165.578 -165.574,-165.578 V 139.34 c 111.761,0 202.363,90.594 202.363,202.359 V 452.07 h -36.789"
         style="fill:#ffffff;fill-opacity:1;fill-rule:evenodd;stroke:none"
         id="path18" /><path
         d="m 691.852,435.051 v -99.653 h -19.504 v 99.653 h -38.352 v 17.039 h 96.203 v -17.039 h -38.347"
         style="fill:#ffffff;fill-opacity:1;fill-rule:evenodd;stroke:none"
         id="path20" /><path
         d="m 788.07,388.5 v -31.141 c 0,-9.828 0.821,-16.714 2.129,-21.961 H 773.32 c -0.82,3.61 -1.148,7.704 -1.148,11.637 h -0.328 c -6.063,-8.847 -15.406,-13.437 -28.024,-13.437 -17.375,0 -28.187,10.488 -28.187,24.746 0,13.605 8.027,22.453 31.957,26.222 6.719,1.149 16.551,2.133 22.453,2.457 v 3.282 c 0,12.289 -6.723,17.211 -16.227,17.211 -10.328,0 -15.898,-5.739 -16.39,-14.59 h -18.352 c 0.817,15.734 12.285,28.187 34.742,28.187 21.961,0 34.254,-10.816 34.254,-32.613 z m -18.027,-13.602 v 0 c -5.574,-0.324 -13.605,-1.144 -19.176,-2.132 -11.965,-1.965 -16.39,-5.571 -16.39,-13.11 0,-7.375 5.246,-12.289 14.75,-12.289 5.734,0 11.308,1.797 15.078,5.571 4.429,4.585 5.738,9.015 5.738,17.863 v 4.097"
         style="fill:#ffffff;fill-opacity:1;fill-rule:evenodd;stroke:none"
         id="path22" /><path
         d="m 924.473,386.699 v -51.301 h -18.684 v 49.497 c 0,14.75 -5.734,20.652 -15.074,20.652 -10.981,0 -17.535,-9.344 -17.535,-25.238 v -44.911 h -18.688 v 51.461 c 0,11.801 -5.246,18.688 -14.918,18.688 -11.14,0 -17.531,-9.508 -17.531,-25.57 v -44.579 h -18.684 v 83.258 h 17.868 v -9.996 h 0.324 c 5.902,8.031 13.273,11.965 23.109,11.965 11.473,0 20.324,-5.246 24.582,-15.078 6.067,9.508 14.094,15.078 26.715,15.078 17.699,0 28.516,-11.473 28.516,-33.926"
         style="fill:#ffffff;fill-opacity:1;fill-rule:evenodd;stroke:none"
         id="path24" /><path
         d="m 1018,377.031 c 0,-26.554 -13.43,-43.593 -34.574,-43.593 -10.328,0 -19.668,4.75 -24.422,12.781 h -0.324 v -41.137 h -18.688 v 113.574 h 18.196 v -11.472 h 0.328 c 4.914,8.523 14.257,13.605 24.746,13.605 21.138,0 34.738,-17.211 34.738,-43.758 z m -60.309,0 v 0 c 0,-18.031 8.032,-29.176 20.161,-29.176 12.621,0 20.652,11.473 20.652,29.176 0,17.699 -8.031,29.172 -20.652,29.172 -12.129,0 -20.161,-10.984 -20.161,-29.172"
         style="fill:#ffffff;fill-opacity:1;fill-rule:evenodd;stroke:none"
         id="path26" /><path
         d="m 1084.22,360.473 h 19.17 c -3.11,-14.91 -16.55,-27.532 -38.35,-27.532 -25.4,0 -40.32,18.196 -40.32,45.071 0,24.582 14.76,43.101 39.99,43.101 19.02,0 32.78,-10.98 37.37,-28.351 1.64,-5.242 2.3,-11.473 2.3,-19.5 h -61.13 c 0.65,-18.852 10.16,-26.555 21.79,-26.555 10.66,0 17.54,5.738 19.18,13.766 z m -40.65,25.078 v 0 h 42.12 c -1.31,14.586 -9.83,21.797 -20.98,21.797 -11.3,0 -19.5,-7.375 -21.14,-21.797"
         style="fill:#ffffff;fill-opacity:1;fill-rule:evenodd;stroke:none"
         id="path28" /><path
         d="M 1163.69,418.984 V 402.43 c -2.3,0.496 -4.43,0.66 -6.56,0.66 -14.91,0 -23.11,-9.508 -23.11,-26.879 v -40.813 h -18.68 v 83.258 h 17.37 v -12.289 h 0.33 c 5.57,9.012 13.44,13.438 23.76,13.438 2.14,0 4.75,-0.328 6.89,-0.821"
         style="fill:#ffffff;fill-opacity:1;fill-rule:evenodd;stroke:none"
         id="path30" /><path
         d="m 1224.57,360.473 h 19.18 c -3.12,-14.91 -16.55,-27.532 -38.35,-27.532 -25.4,0 -40.32,18.196 -40.32,45.071 0,24.582 14.75,43.101 39.99,43.101 19.01,0 32.78,-10.98 37.37,-28.351 1.63,-5.242 2.29,-11.473 2.29,-19.5 h -61.13 c 0.65,-18.852 10.16,-26.555 21.8,-26.555 10.65,0 17.53,5.738 19.17,13.766 z m -40.64,25.078 v 0 h 42.12 c -1.31,14.586 -9.84,21.797 -20.98,21.797 -11.31,0 -19.5,-7.375 -21.14,-21.797"
         style="fill:#ffffff;fill-opacity:1;fill-rule:evenodd;stroke:none"
         id="path32" /><path
         d="m 1310.55,360.473 h 19.18 c -3.12,-14.91 -16.56,-27.532 -38.35,-27.532 -25.41,0 -40.32,18.196 -40.32,45.071 0,24.582 14.75,43.101 39.99,43.101 19,0 32.78,-10.98 37.36,-28.351 1.64,-5.242 2.3,-11.473 2.3,-19.5 h -61.13 c 0.65,-18.852 10.16,-26.555 21.8,-26.555 10.65,0 17.53,5.738 19.17,13.766 z m -40.65,25.078 v 0 h 42.13 c -1.32,14.586 -9.84,21.797 -20.98,21.797 -11.31,0 -19.5,-7.375 -21.15,-21.797"
         style="fill:#ffffff;fill-opacity:1;fill-rule:evenodd;stroke:none"
         id="path34" /><path
         d="m 1414.93,386.371 v -50.973 h -18.68 v 49.332 c 0,14.915 -6.39,20.817 -16.88,20.817 -10.66,0 -19.01,-8.031 -19.01,-23.93 v -46.219 h -18.69 v 83.258 h 17.71 V 407.84 h 0.32 c 5.25,7.539 13.93,12.785 24.91,12.785 18.85,0 30.32,-11.473 30.32,-34.254"
         style="fill:#ffffff;fill-opacity:1;fill-rule:evenodd;stroke:none"
         id="path36" /><path
         d="m 1534.57,388.5 v -31.141 c 0,-9.828 0.82,-16.714 2.13,-21.961 h -16.88 c -0.82,3.61 -1.14,7.704 -1.14,11.637 h -0.33 c -6.07,-8.847 -15.41,-13.437 -28.03,-13.437 -17.37,0 -28.19,10.488 -28.19,24.746 0,13.605 8.03,22.453 31.96,26.222 6.72,1.149 16.55,2.133 22.46,2.457 v 3.282 c 0,12.289 -6.73,17.211 -16.23,17.211 -10.33,0 -15.9,-5.739 -16.39,-14.59 h -18.36 c 0.82,15.734 12.3,28.187 34.75,28.187 21.96,0 34.25,-10.816 34.25,-32.613 z m -18.02,-13.602 v 0 c -5.58,-0.324 -13.61,-1.144 -19.18,-2.132 -11.96,-1.965 -16.39,-5.571 -16.39,-13.11 0,-7.375 5.24,-12.289 14.75,-12.289 5.73,0 11.31,1.797 15.07,5.571 4.43,4.585 5.75,9.015 5.75,17.863 v 4.097"
         style="fill:#ffffff;fill-opacity:1;fill-rule:evenodd;stroke:none"
         id="path38" /><path
         d="m 1670.98,386.699 v -51.301 h -18.69 v 49.497 c 0,14.75 -5.73,20.652 -15.08,20.652 -10.98,0 -17.53,-9.344 -17.53,-25.238 V 335.398 H 1601 v 51.461 c 0,11.801 -5.25,18.688 -14.92,18.688 -11.14,0 -17.53,-9.508 -17.53,-25.57 v -44.579 h -18.69 v 83.258 h 17.87 v -9.996 h 0.32 c 5.9,8.031 13.28,11.965 23.11,11.965 11.47,0 20.32,-5.246 24.59,-15.078 6.06,9.508 14.09,15.078 26.71,15.078 17.7,0 28.52,-11.473 28.52,-33.926"
         style="fill:#ffffff;fill-opacity:1;fill-rule:evenodd;stroke:none"
         id="path40" /><path
         d="m 1807.61,386.699 v -51.301 h -18.68 v 49.497 c 0,14.75 -5.74,20.652 -15.08,20.652 -10.98,0 -17.53,-9.344 -17.53,-25.238 v -44.911 h -18.69 v 51.461 c 0,11.801 -5.24,18.688 -14.92,18.688 -11.14,0 -17.53,-9.508 -17.53,-25.57 v -44.579 h -18.68 v 83.258 h 17.86 v -9.996 h 0.33 c 5.9,8.031 13.27,11.965 23.11,11.965 11.47,0 20.32,-5.246 24.58,-15.078 6.07,9.508 14.1,15.078 26.72,15.078 17.7,0 28.51,-11.473 28.51,-33.926"
         style="fill:#ffffff;fill-opacity:1;fill-rule:evenodd;stroke:none"
         id="path42" /><path
         d="m 1889.63,388.5 v -31.141 c 0,-9.828 0.81,-16.714 2.12,-21.961 h -16.87 c -0.83,3.61 -1.15,7.704 -1.15,11.637 h -0.33 c -6.07,-8.847 -15.41,-13.437 -28.03,-13.437 -17.37,0 -28.19,10.488 -28.19,24.746 0,13.605 8.03,22.453 31.96,26.222 6.72,1.149 16.56,2.133 22.45,2.457 v 3.282 c 0,12.289 -6.71,17.211 -16.22,17.211 -10.33,0 -15.9,-5.739 -16.39,-14.59 h -18.36 c 0.83,15.734 12.29,28.187 34.75,28.187 21.96,0 34.26,-10.816 34.26,-32.613 z m -18.04,-13.602 v 0 c -5.57,-0.324 -13.6,-1.144 -19.17,-2.132 -11.97,-1.965 -16.39,-5.571 -16.39,-13.11 0,-7.375 5.24,-12.289 14.75,-12.289 5.74,0 11.31,1.797 15.08,5.571 4.42,4.585 5.73,9.015 5.73,17.863 v 4.097"
         style="fill:#ffffff;fill-opacity:1;fill-rule:evenodd;stroke:none"
         id="path44" /><path
         d="m 1944.44,350.477 v -14.582 c -2.78,-0.825 -7.05,-1.477 -10.49,-1.477 -17.53,0 -25.24,7.375 -25.24,25.566 v 44.414 h -13.93 v 14.258 h 13.93 v 20.817 h 18.69 v -20.817 h 16.22 v -14.258 h -16.22 v -41.625 c 0,-9.343 3.11,-13.113 11.3,-13.113 2.14,0 4.43,0.324 5.74,0.817"
         style="fill:#ffffff;fill-opacity:1;fill-rule:evenodd;stroke:none"
         id="path46" /><path
         d="m 1996.95,350.477 v -14.582 c -2.78,-0.825 -7.05,-1.477 -10.49,-1.477 -17.53,0 -25.24,7.375 -25.24,25.566 v 44.414 h -13.93 v 14.258 h 13.93 v 20.817 h 18.69 v -20.817 h 16.22 v -14.258 h -16.22 v -41.625 c 0,-9.343 3.11,-13.113 11.3,-13.113 2.14,0 4.43,0.324 5.74,0.817"
         style="fill:#ffffff;fill-opacity:1;fill-rule:evenodd;stroke:none"
         id="path48" /><path
         d="m 2005.62,434.227 v 17.863 h 18.68 v -17.863 z m 0,-98.829 v 0 83.258 h 18.68 v -83.258 h -18.68"
         style="fill:#ffffff;fill-opacity:1;fill-rule:evenodd;stroke:none"
         id="path50" /><path
         d="m 2091.43,335.398 -32.45,40.321 h -0.32 v -40.321 h -18.69 V 452.09 h 18.69 v -67.524 h 0.32 l 30.32,34.09 h 21.8 l -34.42,-38.023 38.35,-45.235 h -23.6"
         style="fill:#ffffff;fill-opacity:1;fill-rule:evenodd;stroke:none"
         id="path52" /><path
         d="m 2191.34,377.031 c 0,-27.047 -15.73,-44.09 -40.97,-44.09 -25.24,0 -41.14,17.043 -41.14,44.09 0,27.039 15.9,44.082 41.14,44.082 25.24,0 40.97,-17.043 40.97,-44.082 z m -62.44,0 v 0 c 0,-18.031 8.19,-29.34 21.47,-29.34 13.27,0 21.47,11.309 21.47,29.34 0,18.024 -8.2,29.336 -21.47,29.336 -13.28,0 -21.47,-11.312 -21.47,-29.336"
         style="fill:#ffffff;fill-opacity:1;fill-rule:evenodd;stroke:none"
         id="path54" /><path
         d="M 2250.93,418.984 V 402.43 c -2.29,0.496 -4.43,0.66 -6.55,0.66 -14.92,0 -23.11,-9.508 -23.11,-26.879 v -40.813 h -18.69 v 83.258 h 17.38 v -12.289 h 0.32 c 5.58,9.012 13.44,13.438 23.77,13.438 2.13,0 4.75,-0.328 6.88,-0.821"
         style="fill:#ffffff;fill-opacity:1;fill-rule:evenodd;stroke:none"
         id="path56" /><path
         d="m 2309.08,335.398 -32.45,40.321 h -0.33 v -40.321 h -18.68 V 452.09 h 18.68 v -67.524 h 0.33 l 30.32,34.09 h 21.8 l -34.42,-38.023 38.35,-45.235 h -23.6"
         style="fill:#ffffff;fill-opacity:1;fill-rule:evenodd;stroke:none"
         id="path58" /><path
         d="m 2386.37,360.473 h 19.17 c -3.11,-14.91 -16.55,-27.532 -38.35,-27.532 -25.4,0 -40.31,18.196 -40.31,45.071 0,24.582 14.75,43.101 39.98,43.101 19.02,0 32.78,-10.98 37.37,-28.351 1.64,-5.242 2.3,-11.473 2.3,-19.5 h -61.13 c 0.65,-18.852 10.15,-26.555 21.79,-26.555 10.66,0 17.54,5.738 19.18,13.766 z m -40.65,25.078 v 0 h 42.12 c -1.31,14.586 -9.83,21.797 -20.98,21.797 -11.31,0 -19.5,-7.375 -21.14,-21.797"
         style="fill:#ffffff;fill-opacity:1;fill-rule:evenodd;stroke:none"
         id="path60" /><path
         d="m 2484.16,388.5 v -31.141 c 0,-9.828 0.82,-16.714 2.13,-21.961 h -16.88 c -0.82,3.61 -1.14,7.704 -1.14,11.637 h -0.34 c -6.06,-8.847 -15.4,-13.437 -28.02,-13.437 -17.37,0 -28.19,10.488 -28.19,24.746 0,13.605 8.03,22.453 31.96,26.222 6.72,1.149 16.55,2.133 22.46,2.457 v 3.282 c 0,12.289 -6.73,17.211 -16.23,17.211 -10.33,0 -15.9,-5.739 -16.39,-14.59 h -18.36 c 0.82,15.734 12.29,28.187 34.75,28.187 21.96,0 34.25,-10.816 34.25,-32.613 z m -18.02,-13.602 v 0 c -5.58,-0.324 -13.61,-1.144 -19.18,-2.132 -11.96,-1.965 -16.39,-5.571 -16.39,-13.11 0,-7.375 5.24,-12.289 14.75,-12.289 5.73,0 11.31,1.797 15.07,5.571 4.43,4.585 5.75,9.015 5.75,17.863 v 4.097"
         style="fill:#ffffff;fill-opacity:1;fill-rule:evenodd;stroke:none"
         id="path62" /><path
         d="m 2550.91,335.398 -32.45,40.321 h -0.33 v -40.321 h -18.68 V 452.09 h 18.68 v -67.524 h 0.33 l 30.32,34.09 h 21.8 l -34.42,-38.023 38.36,-45.235 h -23.61"
         style="fill:#ffffff;fill-opacity:1;fill-rule:evenodd;stroke:none"
         id="path64" /><path
         d="m 2650.82,377.031 c 0,-27.047 -15.73,-44.09 -40.97,-44.09 -25.24,0 -41.14,17.043 -41.14,44.09 0,27.039 15.9,44.082 41.14,44.082 25.24,0 40.97,-17.043 40.97,-44.082 z m -62.44,0 v 0 c 0,-18.031 8.19,-29.34 21.47,-29.34 13.27,0 21.47,11.309 21.47,29.34 0,18.024 -8.2,29.336 -21.47,29.336 -13.28,0 -21.47,-11.312 -21.47,-29.336"
         style="fill:#ffffff;fill-opacity:1;fill-rule:evenodd;stroke:none"
         id="path66" /><path
         d="m 2661.11,367.688 v 50.968 h 18.68 v -49.332 c 0,-14.914 6.4,-20.812 16.89,-20.812 10.65,0 19.01,8.031 19.01,23.929 v 46.215 h 18.68 v -83.258 h -17.7 v 10.821 h -0.33 c -5.24,-7.543 -13.93,-12.781 -24.91,-12.781 -18.85,0 -30.32,11.468 -30.32,34.25"
         style="fill:#ffffff;fill-opacity:1;fill-rule:evenodd;stroke:none"
         id="path68" /><path
         d="M 2750.22,335.398 V 452.09 h 18.68 V 335.398 h -18.68"
         style="fill:#ffffff;fill-opacity:1;fill-rule:evenodd;stroke:none"
         id="path70" /><path
         d="m 2784.03,367.688 v 50.968 h 18.68 v -49.332 c 0,-14.914 6.39,-20.812 16.88,-20.812 10.65,0 19.01,8.031 19.01,23.929 v 46.215 h 18.69 v -83.258 h -17.7 v 10.821 h -0.33 c -5.24,-7.543 -13.93,-12.781 -24.91,-12.781 -18.85,0 -30.32,11.468 -30.32,34.25"
         style="fill:#ffffff;fill-opacity:1;fill-rule:evenodd;stroke:none"
         id="path72" /><path
         d="m 691.852,269.457 v -99.641 h -19.504 v 99.641 h -38.352 v 17.047 h 96.203 v -17.047 h -38.347"
         style="fill:#ffffff;fill-opacity:1;fill-rule:evenodd;stroke:none"
         id="path74" /><path
         d="m 788.07,222.914 v -31.141 c 0,-9.832 0.821,-16.71 2.129,-21.957 H 773.32 c -0.82,3.602 -1.148,7.704 -1.148,11.633 h -0.328 c -6.063,-8.847 -15.406,-13.437 -28.024,-13.437 -17.375,0 -28.187,10.492 -28.187,24.75 0,13.601 8.027,22.449 31.957,26.222 6.719,1.145 16.551,2.129 22.453,2.457 v 3.278 c 0,12.289 -6.723,17.211 -16.227,17.211 -10.328,0 -15.898,-5.739 -16.39,-14.59 h -18.352 c 0.817,15.734 12.285,28.187 34.742,28.187 21.961,0 34.254,-10.812 34.254,-32.613 z m -18.027,-13.601 v 0 c -5.574,-0.329 -13.605,-1.149 -19.176,-2.129 -11.965,-1.969 -16.39,-5.575 -16.39,-13.114 0,-7.371 5.246,-12.293 14.75,-12.293 5.734,0 11.308,1.805 15.078,5.575 4.429,4.586 5.738,9.011 5.738,17.863 v 4.098"
         style="fill:#ffffff;fill-opacity:1;fill-rule:evenodd;stroke:none"
         id="path76" /><path
         d="m 924.473,221.113 v -51.297 h -18.684 v 49.493 c 0,14.75 -5.734,20.652 -15.074,20.652 -10.981,0 -17.535,-9.34 -17.535,-25.238 v -44.907 h -18.688 v 51.461 c 0,11.801 -5.246,18.684 -14.918,18.684 -11.14,0 -17.531,-9.504 -17.531,-25.57 v -44.575 h -18.684 v 83.254 h 17.868 v -9.996 h 0.324 c 5.902,8.031 13.273,11.965 23.109,11.965 11.473,0 20.324,-5.246 24.582,-15.078 6.067,9.504 14.094,15.078 26.715,15.078 17.699,0 28.516,-11.473 28.516,-33.926"
         style="fill:#ffffff;fill-opacity:1;fill-rule:evenodd;stroke:none"
         id="path78" /><path
         d="m 1018,211.441 c 0,-26.55 -13.43,-43.593 -34.574,-43.593 -10.328,0 -19.668,4.754 -24.422,12.785 H 958.68 V 139.496 H 939.992 V 253.07 h 18.196 v -11.472 h 0.328 c 4.914,8.523 14.257,13.605 24.746,13.605 21.138,0 34.738,-17.211 34.738,-43.762 z m -60.309,0 v 0 c 0,-18.027 8.032,-29.171 20.161,-29.171 12.621,0 20.652,11.472 20.652,29.171 0,17.704 -8.031,29.176 -20.652,29.176 -12.129,0 -20.161,-10.98 -20.161,-29.176"
         style="fill:#ffffff;fill-opacity:1;fill-rule:evenodd;stroke:none"
         id="path80" /><path
         d="m 1084.22,194.891 h 19.17 c -3.11,-14.914 -16.55,-27.536 -38.35,-27.536 -25.4,0 -40.32,18.192 -40.32,45.071 0,24.582 14.76,43.101 39.99,43.101 19.02,0 32.78,-10.976 37.37,-28.351 1.64,-5.242 2.3,-11.473 2.3,-19.5 h -61.13 c 0.65,-18.848 10.16,-26.551 21.79,-26.551 10.66,0 17.54,5.738 19.18,13.766 z m -40.65,25.074 v 0 h 42.12 c -1.31,14.586 -9.83,21.797 -20.98,21.797 -11.3,0 -19.5,-7.375 -21.14,-21.797"
         style="fill:#ffffff;fill-opacity:1;fill-rule:evenodd;stroke:none"
         id="path82" /><path
         d="m 1163.69,253.398 v -16.554 c -2.3,0.492 -4.43,0.656 -6.56,0.656 -14.91,0 -23.11,-9.5 -23.11,-26.879 v -40.805 h -18.68 v 83.254 h 17.37 v -12.289 h 0.33 c 5.57,9.012 13.44,13.434 23.76,13.434 2.14,0 4.75,-0.32 6.89,-0.817"
         style="fill:#ffffff;fill-opacity:1;fill-rule:evenodd;stroke:none"
         id="path84" /><path
         d="m 1224.57,194.891 h 19.18 c -3.12,-14.914 -16.55,-27.536 -38.35,-27.536 -25.4,0 -40.32,18.192 -40.32,45.071 0,24.582 14.75,43.101 39.99,43.101 19.01,0 32.78,-10.976 37.37,-28.351 1.63,-5.242 2.29,-11.473 2.29,-19.5 h -61.13 c 0.65,-18.848 10.16,-26.551 21.8,-26.551 10.65,0 17.53,5.738 19.17,13.766 z m -40.64,25.074 v 0 h 42.12 c -1.31,14.586 -9.84,21.797 -20.98,21.797 -11.31,0 -19.5,-7.375 -21.14,-21.797"
         style="fill:#ffffff;fill-opacity:1;fill-rule:evenodd;stroke:none"
         id="path86" /><path
         d="m 1385.19,213.898 c 0,-30.316 -15.9,-46.543 -44.74,-46.543 -28.85,0 -44.91,16.227 -44.91,46.543 v 72.606 h 19.66 v -71.949 c 0,-19.664 9.18,-29.664 25.25,-29.664 16.05,0 25.23,10 25.23,29.664 v 71.949 h 19.51 v -72.606"
         style="fill:#ffffff;fill-opacity:1;fill-rule:evenodd;stroke:none"
         id="path88" /><path
         d="m 1475.29,220.785 v -50.969 h -18.68 v 49.332 c 0,14.911 -6.4,20.813 -16.89,20.813 -10.65,0 -19.01,-8.031 -19.01,-23.926 v -46.219 h -18.68 v 83.254 h 17.7 v -10.812 h 0.33 c 5.25,7.535 13.93,12.781 24.91,12.781 18.85,0 30.32,-11.473 30.32,-34.254"
         style="fill:#ffffff;fill-opacity:1;fill-rule:evenodd;stroke:none"
         id="path90" /><path
         d="m 1490.64,268.641 v 17.863 h 18.69 v -17.863 z m 0,-98.825 v 0 83.254 h 18.69 v -83.254 h -18.69"
         style="fill:#ffffff;fill-opacity:1;fill-rule:evenodd;stroke:none"
         id="path92" /><path
         d="m 1543.91,169.816 -29.01,83.254 h 19.51 l 10.81,-33.922 c 3.94,-12.128 7.38,-24.093 10.66,-36.386 h 0.33 c 3.27,12.293 6.71,24.258 10.65,36.386 l 10.81,33.922 h 19.51 l -29.01,-83.254 h -24.26"
         style="fill:#ffffff;fill-opacity:1;fill-rule:evenodd;stroke:none"
         id="path94" /><path
         d="m 1654.44,194.891 h 19.17 c -3.11,-14.914 -16.55,-27.536 -38.34,-27.536 -25.41,0 -40.32,18.192 -40.32,45.071 0,24.582 14.75,43.101 39.99,43.101 19.01,0 32.77,-10.976 37.36,-28.351 1.64,-5.242 2.3,-11.473 2.3,-19.5 h -61.14 c 0.67,-18.848 10.17,-26.551 21.81,-26.551 10.65,0 17.53,5.738 19.17,13.766 z m -40.65,25.074 v 0 h 42.12 c -1.3,14.586 -9.83,21.797 -20.97,21.797 -11.31,0 -19.51,-7.375 -21.15,-21.797"
         style="fill:#ffffff;fill-opacity:1;fill-rule:evenodd;stroke:none"
         id="path96" /><path
         d="m 1733.91,253.398 v -16.554 c -2.29,0.492 -4.43,0.656 -6.56,0.656 -14.91,0 -23.1,-9.5 -23.1,-26.879 v -40.805 h -18.68 v 83.254 h 17.36 v -12.289 h 0.33 c 5.58,9.012 13.44,13.434 23.77,13.434 2.13,0 4.75,-0.32 6.88,-0.817"
         style="fill:#ffffff;fill-opacity:1;fill-rule:evenodd;stroke:none"
         id="path98" /><path
         d="m 1805.02,227.176 h -18.03 c 0,9.996 -5.9,14.754 -15.89,14.754 -8.69,0 -13.77,-3.774 -13.77,-9.836 0,-7.211 5.74,-8.688 18.85,-11.965 15.24,-3.938 31.46,-7.539 31.46,-27.367 0,-15.078 -13.43,-25.407 -34.91,-25.407 -22.28,0 -35.89,10 -36.05,29.833 h 19.01 c 0,-10.165 6.23,-15.899 17.38,-15.899 9.5,0 15.07,4.094 15.07,10.324 0,8.52 -6.55,10.16 -20.98,13.766 -13.93,3.441 -28.51,6.555 -28.51,25.242 0,14.746 13.11,24.906 32.61,24.906 21.14,0 33.6,-9.832 33.76,-28.351"
         style="fill:#ffffff;fill-opacity:1;fill-rule:evenodd;stroke:none"
         id="path100" /><path
         d="m 1818.87,268.641 v 17.863 h 18.68 v -17.863 z m 0,-98.825 v 0 83.254 h 18.68 v -83.254 h -18.68"
         style="fill:#ffffff;fill-opacity:1;fill-rule:evenodd;stroke:none"
         id="path102" /><path
         d="m 1893.8,184.891 v -14.586 c -2.79,-0.817 -7.05,-1.473 -10.49,-1.473 -17.54,0 -25.24,7.375 -25.24,25.566 v 44.418 h -13.93 v 14.254 h 13.93 v 20.817 h 18.69 V 253.07 h 16.22 v -14.254 h -16.22 v -41.628 c 0,-9.344 3.11,-13.114 11.31,-13.114 2.13,0 4.42,0.328 5.73,0.817"
         style="fill:#ffffff;fill-opacity:1;fill-rule:evenodd;stroke:none"
         id="path104" /><path
         d="m 1945.46,166.207 c -7.87,-21.141 -17.05,-27.535 -36.39,-27.535 -3.61,0 -6.88,0.496 -9.34,1.148 v 15.246 c 2.13,-0.656 4.92,-1.152 7.87,-1.152 10.16,0 14.59,3.774 18.52,15.246 l -30.49,83.91 h 20 l 20.81,-61.949 h 0.33 l 21.47,61.949 h 19.34 l -32.12,-86.863"
         style="fill:#ffffff;fill-opacity:1;fill-rule:evenodd;stroke:none"
         id="path106" /><path
         d="m 2096.07,211.441 c 0,-27.039 -15.73,-44.086 -40.97,-44.086 -25.24,0 -41.14,17.047 -41.14,44.086 0,27.047 15.9,44.086 41.14,44.086 25.24,0 40.97,-17.039 40.97,-44.086 z m -62.44,0 v 0 c 0,-18.027 8.19,-29.336 21.47,-29.336 13.28,0 21.47,11.309 21.47,29.336 0,18.032 -8.19,29.34 -21.47,29.34 -13.28,0 -21.47,-11.308 -21.47,-29.34"
         style="fill:#ffffff;fill-opacity:1;fill-rule:evenodd;stroke:none"
         id="path108" /><path
         d="m 2129.85,259.789 v -6.719 h 16.06 v -14.254 h -16.06 v -69 h -18.52 v 69 h -14.1 v 14.254 h 14.1 v 8.852 c 0,17.207 8.85,25.73 25.24,25.73 3.44,0 7.38,-0.656 9.84,-1.148 v -13.766 c -1.15,0.328 -2.96,0.657 -4.6,0.657 -8.03,0 -11.96,-3.77 -11.96,-13.606"
         style="fill:#ffffff;fill-opacity:1;fill-rule:evenodd;stroke:none"
         id="path110" /><path
         d="m 2211.46,201.445 -10.81,-31.629 H 2180 l 42.45,116.688 h 26.39 l 42.45,-116.688 h -20.66 l -10.82,31.629 z m 39.34,26.223 v 0 c -5.25,15.57 -10.32,30.812 -15.08,46.383 h -0.33 c -4.75,-15.571 -9.5,-30.813 -14.91,-46.383 l -3.11,-9.176 h 36.54 l -3.11,9.176"
         style="fill:#ffffff;fill-opacity:1;fill-rule:evenodd;stroke:none"
         id="path112" /><path
         d="m 2375.9,211.441 c 0,-26.55 -13.44,-43.593 -34.58,-43.593 -10.33,0 -19.67,4.754 -24.42,12.785 h -0.33 v -41.137 h -18.68 V 253.07 h 18.19 v -11.472 h 0.32 c 4.92,8.523 14.26,13.605 24.75,13.605 21.15,0 34.75,-17.211 34.75,-43.762 z m -60.31,0 v 0 c 0,-18.027 8.03,-29.171 20.16,-29.171 12.61,0 20.65,11.472 20.65,29.171 0,17.704 -8.04,29.176 -20.65,29.176 -12.13,0 -20.16,-10.98 -20.16,-29.176"
         style="fill:#ffffff;fill-opacity:1;fill-rule:evenodd;stroke:none"
         id="path114" /><path
         d="m 2465.41,211.441 c 0,-26.55 -13.44,-43.593 -34.57,-43.593 -10.33,0 -19.67,4.754 -24.43,12.785 h -0.32 V 139.496 H 2387.4 V 253.07 h 18.2 v -11.472 h 0.32 c 4.92,8.523 14.26,13.605 24.75,13.605 21.14,0 34.74,-17.211 34.74,-43.762 z m -60.3,0 v 0 c 0,-18.027 8.03,-29.171 20.15,-29.171 12.62,0 20.65,11.472 20.65,29.171 0,17.704 -8.03,29.176 -20.65,29.176 -12.12,0 -20.15,-10.98 -20.15,-29.176"
         style="fill:#ffffff;fill-opacity:1;fill-rule:evenodd;stroke:none"
         id="path116" /><path
         d="m 2477.07,169.816 v 116.688 h 18.68 V 169.816 h -18.68"
         style="fill:#ffffff;fill-opacity:1;fill-rule:evenodd;stroke:none"
         id="path118" /><path
         d="m 2511.38,268.641 v 17.863 h 18.69 v -17.863 z m 0,-98.825 v 0 83.254 h 18.69 v -83.254 h -18.69"
         style="fill:#ffffff;fill-opacity:1;fill-rule:evenodd;stroke:none"
         id="path120" /><path
         d="m 2600.79,194.891 h 19.17 c -3.12,-14.914 -16.55,-27.536 -38.35,-27.536 -25.4,0 -40.31,18.192 -40.31,45.071 0,24.582 14.74,43.101 39.98,43.101 19.01,0 32.78,-10.976 37.37,-28.351 1.64,-5.242 2.3,-11.473 2.3,-19.5 h -61.14 c 0.66,-18.848 10.16,-26.551 21.8,-26.551 10.65,0 17.54,5.738 19.18,13.766 z m -40.65,25.074 v 0 h 42.12 c -1.31,14.586 -9.83,21.797 -20.98,21.797 -11.31,0 -19.5,-7.375 -21.14,-21.797"
         style="fill:#ffffff;fill-opacity:1;fill-rule:evenodd;stroke:none"
         id="path122" /><path
         d="m 2687.09,169.816 v 11.473 h -0.33 c -4.91,-8.523 -14.26,-13.441 -24.74,-13.441 -21.14,0 -34.75,17.043 -34.75,43.593 0,26.551 13.44,43.762 34.58,43.762 10.33,0 19.67,-4.75 24.42,-12.945 h 0.33 v 44.246 h 18.69 V 169.816 Z m -40.32,41.625 v 0 c 0,-17.699 8.03,-29.171 20.66,-29.171 12.12,0 20.15,11.144 20.15,29.171 0,18.196 -8.03,29.176 -20.15,29.176 -12.63,0 -20.66,-11.472 -20.66,-29.176"
         style="fill:#ffffff;fill-opacity:1;fill-rule:evenodd;stroke:none"
         id="path124" /><path
         d="m 2839.67,250.613 h -19.83 c 0,14.75 -8.36,22.289 -23.44,22.289 -12.61,0 -20.48,-6.062 -20.48,-15.57 0,-10.652 8.03,-13.93 26.71,-18.516 21.96,-5.414 40.32,-11.148 40.32,-35.73 0,-21.637 -17.38,-35.731 -43.59,-35.731 -28.2,0 -45.4,14.258 -45.4,40.973 h 20.15 c 0,-16.715 9.18,-24.746 25.41,-24.746 14.58,0 23.11,6.723 23.11,17.699 0,11.801 -8.53,14.422 -26.39,18.848 -22.13,5.57 -40.48,10.98 -40.48,35.398 0,19.832 16.22,33.434 40.97,33.434 28.36,0 42.94,-13.273 42.94,-38.348"
         style="fill:#ffffff;fill-opacity:1;fill-rule:evenodd;stroke:none"
         id="path126" /><path
         d="m 2927.78,222.914 h -19.5 c -0.82,10.816 -7.87,17.867 -18.03,17.867 -13.11,0 -20.82,-11.144 -20.82,-29.34 0,-18.191 7.71,-29.336 20.82,-29.336 10.16,0 17.04,8.036 17.86,19.34 h 19.67 c -1.64,-20.156 -16.06,-34.09 -37.53,-34.09 -24.59,0 -40.48,17.047 -40.48,44.086 0,27.047 15.89,44.086 40.48,44.086 21.3,0 35.89,-13.597 37.53,-32.613"
         style="fill:#ffffff;fill-opacity:1;fill-rule:evenodd;stroke:none"
         id="path128" /><path
         d="m 2938.63,268.641 v 17.863 h 18.68 v -17.863 z m 0,-98.825 v 0 83.254 h 18.68 v -83.254 h -18.68"
         style="fill:#ffffff;fill-opacity:1;fill-rule:evenodd;stroke:none"
         id="path130" /><path
         d="m 3028.03,194.891 h 19.17 c -3.11,-14.914 -16.55,-27.536 -38.35,-27.536 -25.4,0 -40.31,18.192 -40.31,45.071 0,24.582 14.75,43.101 39.98,43.101 19.02,0 32.78,-10.976 37.37,-28.351 1.64,-5.242 2.3,-11.473 2.3,-19.5 h -61.14 c 0.66,-18.848 10.16,-26.551 21.8,-26.551 10.66,0 17.54,5.738 19.18,13.766 z m -40.65,25.074 v 0 h 42.12 c -1.31,14.586 -9.83,21.797 -20.98,21.797 -11.31,0 -19.5,-7.375 -21.14,-21.797"
         style="fill:#ffffff;fill-opacity:1;fill-rule:evenodd;stroke:none"
         id="path132" /><path
         d="m 3132.41,220.785 v -50.969 h -18.68 v 49.332 c 0,14.911 -6.39,20.813 -16.88,20.813 -10.65,0 -19.01,-8.031 -19.01,-23.926 v -46.219 h -18.68 v 83.254 h 17.69 v -10.812 h 0.33 c 5.25,7.535 13.93,12.781 24.91,12.781 18.85,0 30.32,-11.473 30.32,-34.254"
         style="fill:#ffffff;fill-opacity:1;fill-rule:evenodd;stroke:none"
         id="path134" /><path
         d="m 3220.71,222.914 h -19.5 c -0.82,10.816 -7.87,17.867 -18.03,17.867 -13.11,0 -20.81,-11.144 -20.81,-29.34 0,-18.191 7.7,-29.336 20.81,-29.336 10.16,0 17.05,8.036 17.87,19.34 h 19.66 c -1.63,-20.156 -16.06,-34.09 -37.53,-34.09 -24.58,0 -40.47,17.047 -40.47,44.086 0,27.047 15.89,44.086 40.47,44.086 21.31,0 35.9,-13.597 37.53,-32.613"
         style="fill:#ffffff;fill-opacity:1;fill-rule:evenodd;stroke:none"
         id="path136" /><path
         d="m 3285.97,194.891 h 19.18 c -3.11,-14.914 -16.55,-27.536 -38.35,-27.536 -25.4,0 -40.32,18.192 -40.32,45.071 0,24.582 14.75,43.101 39.99,43.101 19.01,0 32.78,-10.976 37.37,-28.351 1.64,-5.242 2.3,-11.473 2.3,-19.5 H 3245 c 0.66,-18.848 10.16,-26.551 21.8,-26.551 10.65,0 17.54,5.738 19.17,13.766 z m -40.64,25.074 v 0 h 42.12 c -1.31,14.586 -9.84,21.797 -20.98,21.797 -11.31,0 -19.5,-7.375 -21.14,-21.797"
         style="fill:#ffffff;fill-opacity:1;fill-rule:evenodd;stroke:none"
         id="path138" /><path
         d="m 3380.2,227.176 h -18.03 c 0,9.996 -5.9,14.754 -15.9,14.754 -8.68,0 -13.77,-3.774 -13.77,-9.836 0,-7.211 5.74,-8.688 18.85,-11.965 15.24,-3.938 31.47,-7.539 31.47,-27.367 0,-15.078 -13.44,-25.407 -34.91,-25.407 -22.29,0 -35.89,10 -36.05,29.833 h 19 c 0,-10.165 6.23,-15.899 17.38,-15.899 9.51,0 15.08,4.094 15.08,10.324 0,8.52 -6.56,10.16 -20.98,13.766 -13.93,3.441 -28.52,6.555 -28.52,25.242 0,14.746 13.11,24.906 32.61,24.906 21.14,0 33.6,-9.832 33.77,-28.351"
         style="fill:#ffffff;fill-opacity:1;fill-rule:evenodd;stroke:none"
         id="path140" /></g></g></svg>
